<?xml version="1.0" encoding="utf-8"?>
<svg xmlns="http://www.w3.org/2000/svg" xmlns:xlink="http://www.w3.org/1999/xlink" style="margin: auto; background: none; display: block; shape-rendering: auto;" width="210px" height="210px" viewBox="0 0 100 100" preserveAspectRatio="xMidYMid">
<g transform="rotate(0 50 50)">
  <rect x="47" y="24.5" rx="2.1" ry="0.5" width="6" height="1" fill="#b1c8cd">
    <animate attributeName="opacity" values="1;0" keyTimes="0;1" dur="0.3472222222222222s" begin="-0.3391472868217055s" repeatCount="indefinite"></animate>
  </rect>
</g><g transform="rotate(8.372093023255815 50 50)">
  <rect x="47" y="24.5" rx="2.1" ry="0.5" width="6" height="1" fill="#b1c8cd">
    <animate attributeName="opacity" values="1;0" keyTimes="0;1" dur="0.3472222222222222s" begin="-0.3310723514211887s" repeatCount="indefinite"></animate>
  </rect>
</g><g transform="rotate(16.74418604651163 50 50)">
  <rect x="47" y="24.5" rx="2.1" ry="0.5" width="6" height="1" fill="#b1c8cd">
    <animate attributeName="opacity" values="1;0" keyTimes="0;1" dur="0.3472222222222222s" begin="-0.3229974160206719s" repeatCount="indefinite"></animate>
  </rect>
</g><g transform="rotate(25.11627906976744 50 50)">
  <rect x="47" y="24.5" rx="2.1" ry="0.5" width="6" height="1" fill="#b1c8cd">
    <animate attributeName="opacity" values="1;0" keyTimes="0;1" dur="0.3472222222222222s" begin="-0.31492248062015504s" repeatCount="indefinite"></animate>
  </rect>
</g><g transform="rotate(33.48837209302326 50 50)">
  <rect x="47" y="24.5" rx="2.1" ry="0.5" width="6" height="1" fill="#b1c8cd">
    <animate attributeName="opacity" values="1;0" keyTimes="0;1" dur="0.3472222222222222s" begin="-0.30684754521963825s" repeatCount="indefinite"></animate>
  </rect>
</g><g transform="rotate(41.86046511627907 50 50)">
  <rect x="47" y="24.5" rx="2.1" ry="0.5" width="6" height="1" fill="#b1c8cd">
    <animate attributeName="opacity" values="1;0" keyTimes="0;1" dur="0.3472222222222222s" begin="-0.29877260981912146s" repeatCount="indefinite"></animate>
  </rect>
</g><g transform="rotate(50.23255813953488 50 50)">
  <rect x="47" y="24.5" rx="2.1" ry="0.5" width="6" height="1" fill="#b1c8cd">
    <animate attributeName="opacity" values="1;0" keyTimes="0;1" dur="0.3472222222222222s" begin="-0.29069767441860467s" repeatCount="indefinite"></animate>
  </rect>
</g><g transform="rotate(58.604651162790695 50 50)">
  <rect x="47" y="24.5" rx="2.1" ry="0.5" width="6" height="1" fill="#b1c8cd">
    <animate attributeName="opacity" values="1;0" keyTimes="0;1" dur="0.3472222222222222s" begin="-0.2826227390180879s" repeatCount="indefinite"></animate>
  </rect>
</g><g transform="rotate(66.97674418604652 50 50)">
  <rect x="47" y="24.5" rx="2.1" ry="0.5" width="6" height="1" fill="#b1c8cd">
    <animate attributeName="opacity" values="1;0" keyTimes="0;1" dur="0.3472222222222222s" begin="-0.2745478036175711s" repeatCount="indefinite"></animate>
  </rect>
</g><g transform="rotate(75.34883720930233 50 50)">
  <rect x="47" y="24.5" rx="2.1" ry="0.5" width="6" height="1" fill="#b1c8cd">
    <animate attributeName="opacity" values="1;0" keyTimes="0;1" dur="0.3472222222222222s" begin="-0.2664728682170543s" repeatCount="indefinite"></animate>
  </rect>
</g><g transform="rotate(83.72093023255815 50 50)">
  <rect x="47" y="24.5" rx="2.1" ry="0.5" width="6" height="1" fill="#b1c8cd">
    <animate attributeName="opacity" values="1;0" keyTimes="0;1" dur="0.3472222222222222s" begin="-0.2583979328165375s" repeatCount="indefinite"></animate>
  </rect>
</g><g transform="rotate(92.09302325581395 50 50)">
  <rect x="47" y="24.5" rx="2.1" ry="0.5" width="6" height="1" fill="#b1c8cd">
    <animate attributeName="opacity" values="1;0" keyTimes="0;1" dur="0.3472222222222222s" begin="-0.2503229974160207s" repeatCount="indefinite"></animate>
  </rect>
</g><g transform="rotate(100.46511627906976 50 50)">
  <rect x="47" y="24.5" rx="2.1" ry="0.5" width="6" height="1" fill="#b1c8cd">
    <animate attributeName="opacity" values="1;0" keyTimes="0;1" dur="0.3472222222222222s" begin="-0.2422480620155039s" repeatCount="indefinite"></animate>
  </rect>
</g><g transform="rotate(108.83720930232558 50 50)">
  <rect x="47" y="24.5" rx="2.1" ry="0.5" width="6" height="1" fill="#b1c8cd">
    <animate attributeName="opacity" values="1;0" keyTimes="0;1" dur="0.3472222222222222s" begin="-0.2341731266149871s" repeatCount="indefinite"></animate>
  </rect>
</g><g transform="rotate(117.20930232558139 50 50)">
  <rect x="47" y="24.5" rx="2.1" ry="0.5" width="6" height="1" fill="#b1c8cd">
    <animate attributeName="opacity" values="1;0" keyTimes="0;1" dur="0.3472222222222222s" begin="-0.2260981912144703s" repeatCount="indefinite"></animate>
  </rect>
</g><g transform="rotate(125.5813953488372 50 50)">
  <rect x="47" y="24.5" rx="2.1" ry="0.5" width="6" height="1" fill="#b1c8cd">
    <animate attributeName="opacity" values="1;0" keyTimes="0;1" dur="0.3472222222222222s" begin="-0.21802325581395351s" repeatCount="indefinite"></animate>
  </rect>
</g><g transform="rotate(133.95348837209303 50 50)">
  <rect x="47" y="24.5" rx="2.1" ry="0.5" width="6" height="1" fill="#b1c8cd">
    <animate attributeName="opacity" values="1;0" keyTimes="0;1" dur="0.3472222222222222s" begin="-0.20994832041343672s" repeatCount="indefinite"></animate>
  </rect>
</g><g transform="rotate(142.32558139534885 50 50)">
  <rect x="47" y="24.5" rx="2.1" ry="0.5" width="6" height="1" fill="#b1c8cd">
    <animate attributeName="opacity" values="1;0" keyTimes="0;1" dur="0.3472222222222222s" begin="-0.2018733850129199s" repeatCount="indefinite"></animate>
  </rect>
</g><g transform="rotate(150.69767441860466 50 50)">
  <rect x="47" y="24.5" rx="2.1" ry="0.5" width="6" height="1" fill="#b1c8cd">
    <animate attributeName="opacity" values="1;0" keyTimes="0;1" dur="0.3472222222222222s" begin="-0.1937984496124031s" repeatCount="indefinite"></animate>
  </rect>
</g><g transform="rotate(159.06976744186048 50 50)">
  <rect x="47" y="24.5" rx="2.1" ry="0.5" width="6" height="1" fill="#b1c8cd">
    <animate attributeName="opacity" values="1;0" keyTimes="0;1" dur="0.3472222222222222s" begin="-0.18572351421188632s" repeatCount="indefinite"></animate>
  </rect>
</g><g transform="rotate(167.4418604651163 50 50)">
  <rect x="47" y="24.5" rx="2.1" ry="0.5" width="6" height="1" fill="#b1c8cd">
    <animate attributeName="opacity" values="1;0" keyTimes="0;1" dur="0.3472222222222222s" begin="-0.17764857881136953s" repeatCount="indefinite"></animate>
  </rect>
</g><g transform="rotate(175.8139534883721 50 50)">
  <rect x="47" y="24.5" rx="2.1" ry="0.5" width="6" height="1" fill="#b1c8cd">
    <animate attributeName="opacity" values="1;0" keyTimes="0;1" dur="0.3472222222222222s" begin="-0.16957364341085274s" repeatCount="indefinite"></animate>
  </rect>
</g><g transform="rotate(184.1860465116279 50 50)">
  <rect x="47" y="24.5" rx="2.1" ry="0.5" width="6" height="1" fill="#b1c8cd">
    <animate attributeName="opacity" values="1;0" keyTimes="0;1" dur="0.3472222222222222s" begin="-0.16149870801033595s" repeatCount="indefinite"></animate>
  </rect>
</g><g transform="rotate(192.5581395348837 50 50)">
  <rect x="47" y="24.5" rx="2.1" ry="0.5" width="6" height="1" fill="#b1c8cd">
    <animate attributeName="opacity" values="1;0" keyTimes="0;1" dur="0.3472222222222222s" begin="-0.15342377260981913s" repeatCount="indefinite"></animate>
  </rect>
</g><g transform="rotate(200.93023255813952 50 50)">
  <rect x="47" y="24.5" rx="2.1" ry="0.5" width="6" height="1" fill="#b1c8cd">
    <animate attributeName="opacity" values="1;0" keyTimes="0;1" dur="0.3472222222222222s" begin="-0.14534883720930233s" repeatCount="indefinite"></animate>
  </rect>
</g><g transform="rotate(209.30232558139534 50 50)">
  <rect x="47" y="24.5" rx="2.1" ry="0.5" width="6" height="1" fill="#b1c8cd">
    <animate attributeName="opacity" values="1;0" keyTimes="0;1" dur="0.3472222222222222s" begin="-0.13727390180878554s" repeatCount="indefinite"></animate>
  </rect>
</g><g transform="rotate(217.67441860465115 50 50)">
  <rect x="47" y="24.5" rx="2.1" ry="0.5" width="6" height="1" fill="#b1c8cd">
    <animate attributeName="opacity" values="1;0" keyTimes="0;1" dur="0.3472222222222222s" begin="-0.12919896640826875s" repeatCount="indefinite"></animate>
  </rect>
</g><g transform="rotate(226.04651162790697 50 50)">
  <rect x="47" y="24.5" rx="2.1" ry="0.5" width="6" height="1" fill="#b1c8cd">
    <animate attributeName="opacity" values="1;0" keyTimes="0;1" dur="0.3472222222222222s" begin="-0.12112403100775194s" repeatCount="indefinite"></animate>
  </rect>
</g><g transform="rotate(234.41860465116278 50 50)">
  <rect x="47" y="24.5" rx="2.1" ry="0.5" width="6" height="1" fill="#b1c8cd">
    <animate attributeName="opacity" values="1;0" keyTimes="0;1" dur="0.3472222222222222s" begin="-0.11304909560723515s" repeatCount="indefinite"></animate>
  </rect>
</g><g transform="rotate(242.7906976744186 50 50)">
  <rect x="47" y="24.5" rx="2.1" ry="0.5" width="6" height="1" fill="#b1c8cd">
    <animate attributeName="opacity" values="1;0" keyTimes="0;1" dur="0.3472222222222222s" begin="-0.10497416020671836s" repeatCount="indefinite"></animate>
  </rect>
</g><g transform="rotate(251.1627906976744 50 50)">
  <rect x="47" y="24.5" rx="2.1" ry="0.5" width="6" height="1" fill="#b1c8cd">
    <animate attributeName="opacity" values="1;0" keyTimes="0;1" dur="0.3472222222222222s" begin="-0.09689922480620156s" repeatCount="indefinite"></animate>
  </rect>
</g><g transform="rotate(259.5348837209302 50 50)">
  <rect x="47" y="24.5" rx="2.1" ry="0.5" width="6" height="1" fill="#b1c8cd">
    <animate attributeName="opacity" values="1;0" keyTimes="0;1" dur="0.3472222222222222s" begin="-0.08882428940568476s" repeatCount="indefinite"></animate>
  </rect>
</g><g transform="rotate(267.90697674418607 50 50)">
  <rect x="47" y="24.5" rx="2.1" ry="0.5" width="6" height="1" fill="#b1c8cd">
    <animate attributeName="opacity" values="1;0" keyTimes="0;1" dur="0.3472222222222222s" begin="-0.08074935400516797s" repeatCount="indefinite"></animate>
  </rect>
</g><g transform="rotate(276.27906976744185 50 50)">
  <rect x="47" y="24.5" rx="2.1" ry="0.5" width="6" height="1" fill="#b1c8cd">
    <animate attributeName="opacity" values="1;0" keyTimes="0;1" dur="0.3472222222222222s" begin="-0.07267441860465117s" repeatCount="indefinite"></animate>
  </rect>
</g><g transform="rotate(284.6511627906977 50 50)">
  <rect x="47" y="24.5" rx="2.1" ry="0.5" width="6" height="1" fill="#b1c8cd">
    <animate attributeName="opacity" values="1;0" keyTimes="0;1" dur="0.3472222222222222s" begin="-0.06459948320413438s" repeatCount="indefinite"></animate>
  </rect>
</g><g transform="rotate(293.0232558139535 50 50)">
  <rect x="47" y="24.5" rx="2.1" ry="0.5" width="6" height="1" fill="#b1c8cd">
    <animate attributeName="opacity" values="1;0" keyTimes="0;1" dur="0.3472222222222222s" begin="-0.05652454780361758s" repeatCount="indefinite"></animate>
  </rect>
</g><g transform="rotate(301.3953488372093 50 50)">
  <rect x="47" y="24.5" rx="2.1" ry="0.5" width="6" height="1" fill="#b1c8cd">
    <animate attributeName="opacity" values="1;0" keyTimes="0;1" dur="0.3472222222222222s" begin="-0.04844961240310078s" repeatCount="indefinite"></animate>
  </rect>
</g><g transform="rotate(309.7674418604651 50 50)">
  <rect x="47" y="24.5" rx="2.1" ry="0.5" width="6" height="1" fill="#b1c8cd">
    <animate attributeName="opacity" values="1;0" keyTimes="0;1" dur="0.3472222222222222s" begin="-0.040374677002583986s" repeatCount="indefinite"></animate>
  </rect>
</g><g transform="rotate(318.13953488372096 50 50)">
  <rect x="47" y="24.5" rx="2.1" ry="0.5" width="6" height="1" fill="#b1c8cd">
    <animate attributeName="opacity" values="1;0" keyTimes="0;1" dur="0.3472222222222222s" begin="-0.03229974160206719s" repeatCount="indefinite"></animate>
  </rect>
</g><g transform="rotate(326.51162790697674 50 50)">
  <rect x="47" y="24.5" rx="2.1" ry="0.5" width="6" height="1" fill="#b1c8cd">
    <animate attributeName="opacity" values="1;0" keyTimes="0;1" dur="0.3472222222222222s" begin="-0.02422480620155039s" repeatCount="indefinite"></animate>
  </rect>
</g><g transform="rotate(334.8837209302326 50 50)">
  <rect x="47" y="24.5" rx="2.1" ry="0.5" width="6" height="1" fill="#b1c8cd">
    <animate attributeName="opacity" values="1;0" keyTimes="0;1" dur="0.3472222222222222s" begin="-0.016149870801033594s" repeatCount="indefinite"></animate>
  </rect>
</g><g transform="rotate(343.25581395348837 50 50)">
  <rect x="47" y="24.5" rx="2.1" ry="0.5" width="6" height="1" fill="#b1c8cd">
    <animate attributeName="opacity" values="1;0" keyTimes="0;1" dur="0.3472222222222222s" begin="-0.008074935400516797s" repeatCount="indefinite"></animate>
  </rect>
</g><g transform="rotate(351.6279069767442 50 50)">
  <rect x="47" y="24.5" rx="2.1" ry="0.5" width="6" height="1" fill="#b1c8cd">
    <animate attributeName="opacity" values="1;0" keyTimes="0;1" dur="0.3472222222222222s" begin="0s" repeatCount="indefinite"></animate>
  </rect>
</g>
<!-- [ldio] generated by https://loading.io/ --></svg>